<?xml version="1.0" standalone="no"?>
<!DOCTYPE svg PUBLIC "-//W3C//DTD SVG 20010904//EN"
 "http://www.w3.org/TR/2001/REC-SVG-20010904/DTD/svg10.dtd">
<svg version="1.0" xmlns="http://www.w3.org/2000/svg"
 width="512.000000pt" height="512.000000pt" viewBox="0 0 512.000000 512.000000"
 preserveAspectRatio="xMidYMid meet">
<metadata>
Created by potrace 1.14, written by Peter Selinger 2001-2017
</metadata>
<g transform="translate(0.000000,512.000000) scale(0.100000,-0.100000)"
fill="#000000" stroke="none">
<path d="M2395 4954 c-299 -40 -626 -156 -870 -309 -580 -365 -938 -951 -1000
-1639 l-6 -68 38 6 c86 16 145 17 174 6 65 -27 102 -108 81 -176 -15 -49 15
-109 58 -117 40 -9 69 -64 52 -102 l-12 -25 -216 0 -217 0 7 -71 c4 -39 10
-78 13 -86 4 -11 0 -12 -23 -6 -35 10 -109 10 -147 0 -34 -9 -176 -137 -200
-180 -19 -36 -22 -90 -6 -136 17 -48 166 -174 231 -195 l53 -16 0 -98 c0 -90
3 -103 32 -163 23 -45 54 -86 100 -130 38 -35 87 -91 111 -124 73 -102 78
-107 110 -100 23 5 30 14 41 53 18 69 66 164 112 222 36 45 147 130 171 130
18 0 6 -42 -33 -122 -117 -237 -135 -270 -154 -278 -36 -15 7 -11 65 6 78 23
143 20 193 -9 40 -24 87 -87 87 -118 1 -31 15 -39 53 -28 20 5 37 11 37 13 0
2 -7 21 -16 42 -34 82 2 183 82 230 40 24 53 26 114 22 64 -5 69 -4 60 13 -15
26 -12 77 5 112 17 36 77 82 119 93 27 6 27 7 8 28 -32 35 -42 62 -42 114 0
83 66 152 146 152 24 0 42 11 76 44 38 38 42 47 31 62 -24 33 -26 98 -6 145
24 53 37 65 100 89 40 15 49 23 54 49 4 17 14 42 23 56 12 18 15 38 10 77 -8
72 24 133 87 165 l44 23 165 -83 c91 -46 219 -103 285 -127 66 -24 126 -51
133 -59 9 -11 12 -35 10 -72 -5 -65 -31 -109 -81 -133 -27 -12 -37 -25 -47
-60 -12 -43 -11 -47 13 -75 65 -77 31 -198 -70 -250 -13 -7 -23 -19 -23 -27 0
-33 -35 -88 -69 -107 l-34 -21 25 -7 c94 -25 135 -127 88 -219 -11 -21 -33
-47 -50 -57 -26 -15 -30 -23 -30 -60 0 -86 -54 -157 -128 -169 l-37 -6 0 -63
c0 -56 -3 -67 -28 -92 l-27 -29 35 -17 c39 -19 91 -84 100 -128 5 -22 12 -29
30 -29 48 0 130 -40 172 -82 62 -63 95 -143 95 -228 1 -59 -4 -80 -31 -134
-17 -36 -46 -77 -64 -92 l-31 -26 104 4 c89 3 113 8 155 30 92 49 154 122 181
215 l15 53 98 0 98 0 12 -40 c17 -56 62 -104 129 -137 56 -27 60 -28 237 -28
176 0 181 1 236 28 63 31 136 103 168 166 12 23 27 75 34 116 l12 75 417 0
418 0 0 80 c0 94 -15 139 -59 171 -23 17 -32 33 -37 66 -4 27 -11 43 -20 43
-8 0 -14 6 -14 13 0 8 -4 7 -10 -3 -5 -8 -10 -10 -10 -5 0 6 -5 3 -11 -5 -8
-11 -12 -12 -16 -2 -2 6 -14 12 -26 11 -21 0 -21 -1 -2 -9 16 -7 13 -9 -17 -9
-20 -1 -38 3 -40 7 -1 5 -61 5 -133 0 -179 -13 -445 -12 -458 1 -14 14 -50 14
-65 -1 -7 -7 -42 -11 -87 -11 -68 1 -78 3 -92 23 -14 20 -22 22 -73 17 l-58
-5 9 32 c28 97 137 145 217 96 l33 -21 30 26 c44 37 113 37 169 1 19 -13 45
-26 57 -30 20 -6 21 -3 25 67 3 63 8 80 32 111 47 62 132 84 196 51 28 -15 30
-14 54 18 37 49 126 198 132 224 3 13 19 26 37 33 41 14 95 66 113 109 8 18
14 55 14 82 0 37 4 49 15 49 29 0 94 40 118 72 32 42 57 103 57 138 0 74 -55
161 -122 193 l-47 22 -1 58 c0 61 -16 104 -55 147 -22 25 -22 27 -12 174 12
175 -2 422 -33 579 -113 571 -470 1098 -941 1389 l-86 53 -15 108 c-9 59 -18
110 -21 114 -11 10 -51 -6 -132 -52 l-79 -45 -74 26 c-164 58 -289 87 -470
110 -144 17 -392 17 -537 -2z m285 -194 c4 -26 11 -36 30 -40 36 -9 38 -38 3
-42 -23 -2 -29 -9 -33 -37 -7 -48 -26 -50 -37 -4 -7 31 -14 39 -36 41 -36 4
-34 25 3 39 24 9 30 17 30 40 0 55 32 57 40 3z m469 -380 c135 -81 315 -169
441 -215 58 -22 107 -40 109 -41 7 -5 -51 -258 -79 -343 -15 -48 -107 -245
-203 -437 l-175 -349 -66 0 c-36 0 -66 1 -66 3 0 2 16 41 37 87 31 73 35 88
25 110 -14 31 -63 34 -90 7 -10 -10 -59 -94 -109 -188 -232 -433 -236 -444
-201 -444 13 0 118 -71 118 -79 -1 -21 -14 -51 -22 -51 -21 0 -357 144 -495
212 -79 38 -143 76 -143 83 0 7 8 23 18 34 l17 22 65 -20 c35 -11 68 -17 71
-13 16 16 262 627 262 648 0 33 -21 54 -52 54 -35 0 -61 -29 -96 -110 -15 -36
-30 -67 -32 -70 -3 -3 -24 16 -46 42 l-42 47 -180 -80 c-99 -44 -187 -88 -196
-97 -9 -9 -62 -129 -118 -267 -141 -343 -203 -488 -214 -502 -20 -27 -26 -11
-10 30 34 88 321 779 325 782 7 6 382 175 389 175 4 0 9 -7 11 -15 2 -9 36 58
77 147 157 345 249 522 318 615 81 107 232 283 245 283 5 0 53 -27 107 -60z
m-1765 -132 c8 -5 7 -12 -4 -22 -13 -13 -17 -13 -35 0 -13 9 -16 17 -9 22 6 4
14 16 19 27 l8 20 5 -20 c2 -11 9 -23 16 -27z m-104 -204 c0 -8 -4 -12 -10 -9
-5 3 -10 10 -10 16 0 5 5 9 10 9 6 0 10 -7 10 -16z m230 6 c0 -6 -40 -10 -100
-10 -60 0 -100 4 -100 10 0 6 40 10 100 10 60 0 100 -4 100 -10z m-230 -124
c0 -3 -4 -8 -10 -11 -5 -3 -10 -1 -10 4 0 6 5 11 10 11 6 0 10 -2 10 -4z m140
-6 c0 -5 -25 -10 -55 -10 -30 0 -55 5 -55 10 0 6 25 10 55 10 30 0 55 -4 55
-10z m215 0 c4 -6 -25 -10 -79 -10 -51 0 -86 4 -86 10 0 6 33 10 79 10 44 0
83 -4 86 -10z m315 0 c0 -6 -47 -10 -120 -10 -73 0 -120 4 -120 10 0 6 47 10
120 10 73 0 120 -4 120 -10z m-670 -54 c0 -3 -4 -8 -10 -11 -5 -3 -10 -1 -10
4 0 6 5 11 10 11 6 0 10 -2 10 -4z m355 -6 c4 -7 -52 -10 -159 -10 -104 0
-166 4 -166 10 0 6 60 10 159 10 96 0 162 -4 166 -10z m155 0 c0 -5 -25 -10
-55 -10 -30 0 -55 5 -55 10 0 6 25 10 55 10 30 0 55 -4 55 -10z m65 0 c-3 -5
-13 -10 -21 -10 -8 0 -14 5 -14 10 0 6 9 10 21 10 11 0 17 -4 14 -10z m95 0
c0 -5 -13 -10 -30 -10 -16 0 -30 5 -30 10 0 6 14 10 30 10 17 0 30 -4 30 -10z
m-315 -60 c4 -7 -52 -10 -159 -10 -104 0 -166 4 -166 10 0 6 60 10 159 10 96
0 162 -4 166 -10z m315 0 c0 -6 -52 -10 -135 -10 -83 0 -135 4 -135 10 0 6 52
10 135 10 83 0 135 -4 135 -10z m2141 -60 c25 0 24 -20 -2 -27 -12 -4 -22 -17
-26 -34 -3 -16 -9 -29 -13 -29 -4 0 -10 13 -13 29 -4 17 -14 30 -26 34 -27 7
-27 23 -1 30 11 3 22 12 25 21 16 50 18 51 27 14 7 -27 15 -38 29 -38z m-2811
0 c0 -5 -4 -10 -10 -10 -5 0 -10 5 -10 10 0 6 5 10 10 10 6 0 10 -4 10 -10z
m355 0 c4 -7 -52 -10 -159 -10 -104 0 -166 4 -166 10 0 6 60 10 159 10 96 0
162 -4 166 -10z m315 0 c0 -6 -52 -10 -135 -10 -83 0 -135 4 -135 10 0 6 52
10 135 10 83 0 135 -4 135 -10z m-675 -60 c3 -5 1 -10 -4 -10 -6 0 -11 5 -11
10 0 6 2 10 4 10 3 0 8 -4 11 -10z m135 0 c0 -5 -22 -10 -50 -10 -27 0 -50 5
-50 10 0 6 23 10 50 10 28 0 50 -4 50 -10z m225 0 c4 -6 -20 -10 -64 -10 -41
0 -71 4 -71 10 0 6 28 10 64 10 36 0 68 -4 71 -10z m155 0 c0 -5 -22 -10 -50
-10 -27 0 -50 5 -50 10 0 6 23 10 50 10 28 0 50 -4 50 -10z m110 0 c0 -5 -7
-10 -15 -10 -8 0 -15 5 -15 10 0 6 7 10 15 10 8 0 15 -4 15 -10z m2545 -70
c22 0 19 -17 -5 -23 -12 -3 -20 -14 -20 -26 0 -28 -18 -27 -22 2 -2 14 -11 23
-25 25 -26 4 -31 22 -7 22 9 0 21 13 27 30 l11 29 13 -29 c6 -17 19 -30 28
-30z m-3165 16 c0 -3 -4 -8 -10 -11 -5 -3 -10 -1 -10 4 0 6 5 11 10 11 6 0 10
-2 10 -4z m290 -6 c0 -6 -50 -10 -130 -10 -80 0 -130 4 -130 10 0 6 50 10 130
10 80 0 130 -4 130 -10z m-303 -62 c-3 -8 -6 -5 -6 6 -1 11 2 17 5 13 3 -3 4
-12 1 -19z m203 2 c0 -6 -33 -10 -80 -10 -47 0 -80 4 -80 10 0 6 33 10 80 10
47 0 80 -4 80 -10z m472 -92 c2 -25 8 -34 26 -36 12 -2 22 -9 22 -15 0 -7 -10
-17 -22 -22 -14 -6 -24 -21 -26 -37 -5 -39 -30 -36 -34 5 -2 27 -8 33 -31 35
-33 4 -31 24 4 32 18 4 25 13 27 38 4 43 30 42 34 0z m-552 12 c0 -5 -18 -10
-40 -10 -22 0 -40 5 -40 10 0 6 18 10 40 10 22 0 40 -4 40 -10z m110 0 c0 -5
-18 -10 -41 -10 -24 0 -38 4 -34 10 3 6 22 10 41 10 19 0 34 -4 34 -10z m-110
-50 c0 -5 -18 -10 -40 -10 -22 0 -40 5 -40 10 0 6 18 10 40 10 22 0 40 -4 40
-10z m78 3 c-10 -2 -26 -2 -35 0 -10 3 -2 5 17 5 19 0 27 -2 18 -5z m-78 -43
c0 -5 -21 -10 -46 -10 -27 0 -43 4 -39 10 3 6 24 10 46 10 21 0 39 -4 39 -10z
m85 0 c4 -6 -7 -10 -25 -10 -18 0 -29 4 -25 10 3 6 15 10 25 10 10 0 22 -4 25
-10z m2633 -7 c-15 -2 -42 -2 -60 0 -18 2 -6 4 27 4 33 0 48 -2 33 -4z m79 1
c-3 -3 -12 -4 -19 -1 -8 3 -5 6 6 6 11 1 17 -2 13 -5z m-57 -44 c0 -6 -33 -10
-80 -10 -47 0 -80 4 -80 10 0 6 33 10 80 10 47 0 80 -4 80 -10z m215 0 c4 -6
-28 -10 -89 -10 -57 0 -96 4 -96 10 0 6 36 10 89 10 50 0 93 -4 96 -10z m-465
-40 c0 -5 -7 -10 -16 -10 -8 0 -12 5 -9 10 3 6 10 10 16 10 5 0 9 -4 9 -10z
m140 0 c0 -6 -27 -10 -61 -10 -37 0 -58 4 -54 10 3 6 31 10 61 10 30 0 54 -4
54 -10z m325 0 c4 -6 -42 -10 -129 -10 -84 0 -136 4 -136 10 0 6 50 10 129 10
76 0 132 -4 136 -10z m5 -40 c0 -6 -52 -10 -135 -10 -83 0 -135 4 -135 10 0 6
52 10 135 10 83 0 135 -4 135 -10z m-470 -40 c0 -5 -4 -10 -10 -10 -5 0 -10 5
-10 10 0 6 5 10 10 10 6 0 10 -4 10 -10z m140 0 c0 -5 -25 -10 -55 -10 -30 0
-55 5 -55 10 0 6 25 10 55 10 30 0 55 -4 55 -10z m330 0 c0 -6 -52 -10 -135
-10 -83 0 -135 4 -135 10 0 6 52 10 135 10 83 0 135 -4 135 -10z m0 -40 c0 -6
-80 -10 -220 -10 -140 0 -220 4 -220 10 0 6 80 10 220 10 140 0 220 -4 220
-10z m-860 -201 c0 -12 8 -23 20 -26 11 -3 20 -9 20 -13 0 -5 -9 -12 -20 -15
-11 -3 -20 -15 -20 -26 0 -10 -4 -19 -10 -19 -5 0 -10 9 -10 21 0 12 -8 23
-20 26 -11 3 -20 9 -20 13 0 4 9 10 20 13 12 3 20 14 20 26 0 12 5 21 10 21 6
0 10 -9 10 -21z m-206 -121 c19 -62 46 -151 59 -198 l24 -85 -23 -5 c-20 -4
-51 -60 -191 -347 -92 -188 -169 -341 -171 -339 -2 3 -14 46 -27 96 l-23 92
25 59 26 59 -47 112 -46 111 31 51 c161 265 314 506 320 506 5 0 24 -51 43
-112z m1136 104 c0 -9 -188 -7 -197 2 -4 3 39 6 95 6 56 0 102 -3 102 -8z m30
-112 c0 -6 -33 -10 -80 -10 -47 0 -80 4 -80 10 0 6 33 10 80 10 47 0 80 -4 80
-10z m-570 -29 c0 -33 11 -51 31 -51 27 0 24 -15 -6 -28 -17 -8 -25 -20 -25
-37 0 -34 -16 -32 -23 3 -4 18 -15 31 -34 38 l-28 11 26 11 c17 7 28 21 32 41
7 34 27 43 27 12z m450 -11 c0 -5 -25 -10 -55 -10 -30 0 -55 5 -55 10 0 6 25
10 55 10 30 0 55 -4 55 -10z m120 0 c0 -5 -18 -10 -40 -10 -22 0 -40 5 -40 10
0 6 18 10 40 10 22 0 40 -4 40 -10z m-30 -44 c19 -1 -18 -3 -83 -4 -65 -1
-116 1 -114 6 5 6 114 6 197 -2z m-928 -316 c8 -1 7 -5 -4 -14 -10 -7 -18 -19
-18 -26 0 -7 -10 -3 -23 10 l-23 22 20 24 c20 22 21 22 28 3 4 -10 13 -19 20
-19z m488 -54 c0 -3 -11 -35 -24 -73 -13 -37 -34 -101 -46 -142 -21 -66 -25
-72 -37 -55 -20 28 -20 109 2 160 20 49 105 137 105 110z m213 -176 c31 -11
62 -20 69 -20 18 0 58 -41 58 -61 0 -11 13 -22 35 -29 19 -6 46 -26 61 -43 24
-29 26 -36 21 -95 -4 -39 -2 -72 4 -84 8 -15 8 -27 0 -44 -9 -20 -7 -28 14
-48 33 -33 33 -79 0 -111 l-24 -25 -265 0 -265 0 -12 43 c-19 74 -84 124 -145
112 -30 -5 -34 -3 -34 15 0 24 33 59 58 61 9 1 39 1 66 -1 l48 -2 -7 31 c-14
67 44 151 105 151 27 0 29 3 28 38 -1 70 47 132 102 132 14 0 51 -9 83 -20z
m-2445 -177 c16 -17 16 -19 -5 -40 -17 -17 -23 -18 -23 -7 0 8 -6 17 -14 20
-12 5 -12 9 2 24 21 23 19 23 40 3z m1941 -330 c-5 -43 -9 -94 -11 -113 -2
-25 -10 -40 -29 -52 -38 -23 -69 -71 -77 -119 -7 -40 -10 -42 -54 -54 -26 -6
-55 -18 -64 -26 -16 -13 -17 -12 -11 9 4 17 -3 36 -24 66 -39 55 -41 112 -6
164 14 20 32 53 41 73 9 20 33 51 52 70 32 31 40 34 100 35 36 1 70 6 76 12 7
7 12 12 13 12 1 0 -2 -35 -6 -77z m-382 -320 c-4 -27 -9 -75 -13 -108 -6 -60
-7 -61 -55 -88 -81 -45 -120 -119 -134 -254 -6 -59 -5 -63 15 -63 12 0 35 15
53 34 41 43 67 56 112 56 76 0 135 -55 135 -126 0 -40 2 -44 25 -44 30 0 85
-26 85 -40 0 -6 25 -22 55 -36 97 -46 79 -53 -146 -51 -135 2 -207 -1 -218 -9
-34 -24 -74 -23 -93 1 -9 12 -30 25 -45 28 -24 5 -34 19 -68 94 -37 81 -40 95
-40 173 1 71 5 95 27 142 35 74 71 122 127 164 33 25 49 47 60 82 17 49 65 92
104 92 18 0 19 -5 14 -47z"/>
<path d="M2967 4006 c-107 -53 -157 -134 -157 -255 0 -115 53 -201 155 -254
48 -24 154 -34 211 -18 62 17 129 67 166 124 29 46 33 61 36 133 5 99 -20 165
-80 220 -63 56 -111 74 -203 73 -64 0 -90 -4 -128 -23z m255 -83 c111 -81 118
-244 14 -330 -84 -69 -197 -69 -281 -1 -100 83 -101 246 -2 321 54 41 75 47
154 44 62 -2 77 -6 115 -34z"/>
<path d="M2620 2803 c-59 -125 -66 -153 -35 -153 17 0 138 247 131 267 -14 36
-39 6 -96 -114z"/>
<path d="M467 838 c-18 -18 -36 -32 -42 -33 -68 -4 -100 -91 -50 -140 l24 -25
272 0 c262 0 274 -1 295 -21 l22 -21 -1 60 c0 43 6 72 21 101 l22 41 -26 12
c-21 10 -35 9 -72 -5 -45 -16 -47 -15 -67 3 -32 30 -74 25 -112 -12 -29 -28
-35 -30 -58 -20 -14 7 -36 12 -49 12 -14 0 -30 10 -39 24 -15 22 -73 56 -97
56 -6 0 -26 -14 -43 -32z"/>
</g>
</svg>
